<?xml version="1.0" standalone="no"?><!DOCTYPE svg PUBLIC "-//W3C//DTD SVG 1.1//EN" "http://www.w3.org/Graphics/SVG/1.1/DTD/svg11.dtd"><svg t="1620550408957" class="icon" viewBox="0 0 1024 1024" version="1.1" xmlns="http://www.w3.org/2000/svg" p-id="5505" xmlns:xlink="http://www.w3.org/1999/xlink" width="200" height="200"><defs><style type="text/css"></style></defs><path d="M232.727273 700.509091c-13.963636 0-23.272727-11.636364-23.272728-20.945455L128 95.418182H23.272727c-11.636364 0-23.272727-11.636364-23.272727-23.272727s11.636364-23.272727 23.272727-23.272728h123.345455c11.636364 0 23.272727 9.309091 23.272727 20.945455L186.181818 188.509091h814.545455c6.981818 0 11.636364 2.327273 16.290909 6.981818 4.654545 6.981818 6.981818 13.963636 6.981818 23.272727l-83.781818 463.127273c-2.327273 11.636364-11.636364 18.618182-23.272727 18.618182H232.727273zM756.363636 765.672727c-58.181818 0-104.727273 46.545455-104.727272 104.727273s46.545455 104.727273 104.727272 104.727273 104.727273-46.545455 104.727273-104.727273-46.545455-104.727273-104.727273-104.727273z m0 162.909091c-32.581818 0-58.181818-25.6-58.181818-58.181818s25.6-58.181818 58.181818-58.181818S814.545455 837.818182 814.545455 870.4s-25.6 58.181818-58.181819 58.181818zM384 765.672727c-58.181818 0-104.727273 46.545455-104.727273 104.727273s46.545455 104.727273 104.727273 104.727273 104.727273-46.545455 104.727273-104.727273-46.545455-104.727273-104.727273-104.727273z m0 162.909091c-32.581818 0-58.181818-25.6-58.181818-58.181818s25.6-58.181818 58.181818-58.181818S442.181818 837.818182 442.181818 870.4s-25.6 58.181818-58.181818 58.181818z" fill="#13BFBF" p-id="5506"></path></svg>