<?xml version="1.0" standalone="no"?><!DOCTYPE svg PUBLIC "-//W3C//DTD SVG 1.1//EN" "http://www.w3.org/Graphics/SVG/1.1/DTD/svg11.dtd"><svg t="1620550378074" class="icon" viewBox="0 0 1024 1024" version="1.1" xmlns="http://www.w3.org/2000/svg" p-id="5015" xmlns:xlink="http://www.w3.org/1999/xlink" width="200" height="200"><defs><style type="text/css"></style></defs><path d="M725.334187 768m-256 0a256 256 0 1 0 512 0 256 256 0 1 0-512 0Z" fill="#FE984F" opacity=".2" p-id="5016"></path><path d="M512.000853 554.666667v170.666666a42.666667 42.666667 0 0 1-85.333333 0v-170.666666a42.666667 42.666667 0 0 1 85.333333 0z m298.666667 279.381333c0 11.050667-6.954667 19.285333-13.141333 19.285333H141.142187C134.95552 853.333333 128.000853 845.098667 128.000853 834.048V383.872c0-5.589333 1.792-10.965333 4.906667-14.72L457.814187 92.714667l2.346666-1.92 2.133334-2.133334A10.069333 10.069333 0 0 1 469.334187 85.333333c2.432 0 4.778667 1.109333 7.04 3.328l2.133333 2.133334 2.346667 1.92 324.906666 276.437333a23.338667 23.338667 0 0 1 4.906667 14.72v450.176z m53.674667-527.061333L536.10752 27.733333A95.146667 95.146667 0 0 0 469.334187 0a95.146667 95.146667 0 0 0-66.773334 27.733333L74.326187 306.986667A107.733333 107.733333 0 0 0 42.66752 383.872v450.176C42.66752 891.818667 86.742187 938.666667 141.142187 938.666667h656.384C851.926187 938.666667 896.000853 891.818667 896.000853 834.048V383.872c0-29.226667-11.477333-57.088-31.658666-76.885333z" fill="#FE984F" p-id="5017"></path></svg>