<?xml version="1.0" standalone="no"?><!DOCTYPE svg PUBLIC "-//W3C//DTD SVG 1.1//EN" "http://www.w3.org/Graphics/SVG/1.1/DTD/svg11.dtd"><svg t="1620550449607" class="icon" viewBox="0 0 1024 1024" version="1.1" xmlns="http://www.w3.org/2000/svg" p-id="6709" xmlns:xlink="http://www.w3.org/1999/xlink" width="200" height="200"><defs><style type="text/css"></style></defs><path d="M405.333333 64h-256c-46.933333 0-85.333333 38.4-85.333333 85.333333v256c0 46.933333 38.4 85.333333 85.333333 85.333334h256c46.933333 0 85.333333-38.4 85.333334-85.333334v-256c0-46.933333-38.4-85.333333-85.333334-85.333333zM405.333333 533.333333h-256c-46.933333 0-85.333333 38.4-85.333333 85.333334v256c0 46.933333 38.4 85.333333 85.333333 85.333333h256c46.933333 0 85.333333-38.4 85.333334-85.333333v-256c0-46.933333-38.4-85.333333-85.333334-85.333334z" fill="#E62B00" p-id="6710"></path><path d="M746.666667 277.333333m-213.333334 0a213.333333 213.333333 0 1 0 426.666667 0 213.333333 213.333333 0 1 0-426.666667 0Z" fill="#E62B00" p-id="6711"></path><path d="M874.666667 533.333333h-256c-46.933333 0-85.333333 38.4-85.333334 85.333334v256c0 46.933333 38.4 85.333333 85.333334 85.333333h256c46.933333 0 85.333333-38.4 85.333333-85.333333v-256c0-46.933333-38.4-85.333333-85.333333-85.333334z" fill="#E62B00" p-id="6712"></path></svg>