<?xml version="1.0" standalone="no"?><!DOCTYPE svg PUBLIC "-//W3C//DTD SVG 1.1//EN" "http://www.w3.org/Graphics/SVG/1.1/DTD/svg11.dtd"><svg t="1620553918019" class="icon" viewBox="0 0 1024 1024" version="1.1" xmlns="http://www.w3.org/2000/svg" p-id="6839" xmlns:xlink="http://www.w3.org/1999/xlink" width="200" height="200"><defs><style type="text/css"></style></defs><path d="M725.333333 512a213.333333 213.333333 0 0 1 171.776 339.882667l0.170667 0.170666 64 64a32 32 0 0 1-41.642667 48.341334l-3.584-3.114667-64-64c-35.584 25.941333-79.36 41.386667-126.72 41.386667a213.333333 213.333333 0 0 1 0-426.666667z m-384 0a128 128 0 0 1 128 128v170.666667a128 128 0 0 1-128 128H170.666667a128 128 0 0 1-128-128v-170.666667a128 128 0 0 1 128-128h170.666666z m0 64H170.666667a64 64 0 0 0-63.701334 57.856L106.666667 640v170.666667a64 64 0 0 0 57.856 63.701333L170.666667 874.666667h170.666666a64 64 0 0 0 63.701334-57.856L405.333333 810.666667v-170.666667a64 64 0 0 0-57.856-63.701333L341.333333 576z m384 0a149.333333 149.333333 0 1 0 0 298.666667 149.333333 149.333333 0 0 0 0-298.666667zM341.333333 42.666667a128 128 0 0 1 128 128v170.666666a128 128 0 0 1-128 128H170.666667a128 128 0 0 1-128-128V170.666667a128 128 0 0 1 128-128h170.666666z m469.333334 0a128 128 0 0 1 128 128v170.666666a128 128 0 0 1-128 128h-170.666667a128 128 0 0 1-128-128V170.666667a128 128 0 0 1 128-128h170.666667zM341.333333 106.666667H170.666667a64 64 0 0 0-63.701334 57.856L106.666667 170.666667v170.666666a64 64 0 0 0 57.856 63.701334L170.666667 405.333333h170.666666a64 64 0 0 0 63.701334-57.856L405.333333 341.333333V170.666667a64 64 0 0 0-57.856-63.701334L341.333333 106.666667z m469.333334 0h-170.666667a64 64 0 0 0-63.701333 57.856L576 170.666667v170.666666a64 64 0 0 0 57.856 63.701334L640 405.333333h170.666667a64 64 0 0 0 63.701333-57.856L874.666667 341.333333V170.666667a64 64 0 0 0-57.856-63.701334L810.666667 106.666667z" p-id="6840"></path></svg>