<?xml version="1.0" standalone="no"?><!DOCTYPE svg PUBLIC "-//W3C//DTD SVG 1.1//EN" "http://www.w3.org/Graphics/SVG/1.1/DTD/svg11.dtd"><svg t="1620550405040" class="icon" viewBox="0 0 1024 1024" version="1.1" xmlns="http://www.w3.org/2000/svg" p-id="5377" xmlns:xlink="http://www.w3.org/1999/xlink" width="200" height="200"><defs><style type="text/css"></style></defs><path d="M833.828571 230.4H336.457143c-14.628571 0-29.257143 10.971429-29.257143 25.6 0 14.628571 10.971429 29.257143 29.257143 29.257143h501.028571c73.142857 0 95.085714 14.628571 87.771429 51.2-7.314286 32.914286-29.257143 102.4-62.171429 201.142857-29.257143 91.428571-69.485714 131.657143-106.057143 131.657143H402.285714c-47.542857 0-84.114286-36.571429-106.057143-117.028572L201.142857 142.628571c0-10.971429-10.971429-21.942857-25.6-21.942857H73.142857c-14.628571 0-29.257143 10.971429-29.257143 29.257143 0 14.628571 10.971429 29.257143 29.257143 29.257143h80.457143l87.771429 391.314286c29.257143 102.4 84.114286 157.257143 160.914285 157.257143h351.085715c69.485714 0 120.685714-58.514286 160.914285-171.885715 32.914286-102.4 54.857143-171.885714 65.828572-208.457143 10.971429-80.457143-43.885714-117.028571-146.285715-117.028571zM354.742857 764.342857c-54.857143 0-102.4 43.885714-102.4 102.4 0 54.857143 43.885714 102.4 102.4 102.4 54.857143 0 102.4-43.885714 102.4-102.4 0-58.514286-47.542857-102.4-102.4-102.4z m0 146.285714c-25.6 0-43.885714-21.942857-43.885714-43.885714 0-25.6 21.942857-43.885714 43.885714-43.885714 25.6 0 43.885714 21.942857 43.885714 43.885714 3.657143 21.942857-18.285714 43.885714-43.885714 43.885714zM764.342857 764.342857c-54.857143 0-102.4 43.885714-102.4 102.4 0 54.857143 43.885714 102.4 102.4 102.4 54.857143 0 102.4-43.885714 102.4-102.4-3.657143-58.514286-47.542857-102.4-102.4-102.4z m0 146.285714c-25.6 0-43.885714-21.942857-43.885714-43.885714 0-25.6 21.942857-43.885714 43.885714-43.885714 25.6 0 43.885714 21.942857 43.885714 43.885714s-18.285714 43.885714-43.885714 43.885714z" p-id="5378"></path></svg>