<?xml version="1.0" standalone="no"?><!DOCTYPE svg PUBLIC "-//W3C//DTD SVG 1.1//EN" "http://www.w3.org/Graphics/SVG/1.1/DTD/svg11.dtd"><svg t="1620550434011" class="icon" viewBox="0 0 1024 1024" version="1.1" xmlns="http://www.w3.org/2000/svg" p-id="6387" xmlns:xlink="http://www.w3.org/1999/xlink" width="200" height="200"><defs><style type="text/css"></style></defs><path d="M512 512c115.2 0 213.333333-93.866667 213.333333-213.333333s-93.866667-213.333333-213.333333-213.333334-213.333333 98.133333-213.333333 213.333334 98.133333 213.333333 213.333333 213.333333z m0-362.666667c81.066667 0 149.333333 64 149.333333 149.333334S597.333333 448 512 448 362.666667 379.733333 362.666667 298.666667s68.266667-149.333333 149.333333-149.333334zM840.533333 614.4c-38.4-38.4-89.6-59.733333-136.533333-59.733333h-384c-55.466667 0-102.4 21.333333-136.533333 55.466666-34.133333 34.133333-55.466667 85.333333-55.466667 136.533334V853.333333c0 21.333333 8.533333 42.666667 25.6 59.733334 8.533333 17.066667 34.133333 25.6 59.733333 25.6h597.333334c21.333333 0 42.666667-8.533333 59.733333-25.6 17.066667-12.8 29.866667-38.4 29.866667-64v-102.4c-4.266667-51.2-21.333333-98.133333-59.733334-132.266667z m-8.533333 238.933333c0 4.266667 0 12.8-4.266667 12.8l-4.266666 4.266667c-8.533333 8.533333-12.8 8.533333-17.066667 8.533333H213.333333c-4.266667 0-12.8 0-12.8-4.266666l-4.266666-4.266667c-4.266667-8.533333-4.266667-17.066667-4.266667-17.066667v-106.666666c0-34.133333 12.8-68.266667 38.4-93.866667 25.6-25.6 55.466667-38.4 93.866667-38.4h384c29.866667 0 68.266667 17.066667 93.866666 42.666667 25.6 25.6 38.4 55.466667 38.4 93.866666V853.333333z" fill="#666666" p-id="6388"></path></svg>