<?xml version="1.0" standalone="no"?><!DOCTYPE svg PUBLIC "-//W3C//DTD SVG 1.1//EN" "http://www.w3.org/Graphics/SVG/1.1/DTD/svg11.dtd"><svg t="1620550369722" class="icon" viewBox="0 0 1024 1024" version="1.1" xmlns="http://www.w3.org/2000/svg" p-id="4886" xmlns:xlink="http://www.w3.org/1999/xlink" width="200" height="200"><defs><style type="text/css"></style></defs><path d="M512 89.782857a137.142857 137.142857 0 0 0-90.514286 33.974857L163.437714 349.293714A167.643429 167.643429 0 0 0 106.057143 475.501714v305.700572a153.088 153.088 0 0 0 153.124571 153.051428h505.6a153.088 153.088 0 0 0 153.088-153.051428v-305.700572c0-48.384-20.882286-94.354286-57.307428-126.171428l-258.084572-225.572572A137.362286 137.362286 0 0 0 512 89.746286m0 67.547428c16.932571 0 33.28 6.180571 46.08 17.298286l258.048 225.536c21.796571 19.017143 34.267429 46.482286 34.267429 75.373714v305.700572c0 47.177143-38.4 85.577143-85.577143 85.577143H259.218286a85.650286 85.650286 0 0 1-85.577143-85.577143v-305.700572c0-28.891429 12.470857-56.393143 34.230857-75.373714l258.084571-225.536A70.107429 70.107429 0 0 1 512 157.257143" fill="#AAB0B5" p-id="4887"></path><path d="M598.052571 752.018286h-172.105142a33.755429 33.755429 0 0 1 0-67.510857h172.105142a33.755429 33.755429 0 0 1 0 67.510857" fill="#AAB0B5" p-id="4888"></path></svg>