<?xml version="1.0" standalone="no"?><!DOCTYPE svg PUBLIC "-//W3C//DTD SVG 1.1//EN" "http://www.w3.org/Graphics/SVG/1.1/DTD/svg11.dtd"><svg t="1620550198732" class="icon" viewBox="0 0 1024 1024" version="1.1" xmlns="http://www.w3.org/2000/svg" p-id="1006" xmlns:xlink="http://www.w3.org/1999/xlink" width="200" height="200"><defs><style type="text/css"></style></defs><path d="M384 0H78C34.9 0 0 34.9 0 78v306c0 43.1 34.9 78 78 78h306c43.1 0 78-34.9 78-78V78c0-43.1-34.9-78-78-78zM946 0H640c-43.1 0-78 34.9-78 78v306c0 43.1 34.9 78 78 78h306c43.1 0 78-34.9 78-78V78c0-43.1-34.9-78-78-78zM384 562H78c-43.1 0-78 34.9-78 78v306c0 43.1 34.9 78 78 78h306c43.1 0 78-34.9 78-78V640c0-43.1-34.9-78-78-78zM946 562H640c-43.1 0-78 34.9-78 78v306c0 43.1 34.9 78 78 78h306c43.1 0 78-34.9 78-78V640c0-43.1-34.9-78-78-78z" p-id="1007"></path></svg>