<?xml version="1.0" standalone="no"?><!DOCTYPE svg PUBLIC "-//W3C//DTD SVG 1.1//EN" "http://www.w3.org/Graphics/SVG/1.1/DTD/svg11.dtd"><svg t="1620550439048" class="icon" viewBox="0 0 1024 1024" version="1.1" xmlns="http://www.w3.org/2000/svg" p-id="6519" xmlns:xlink="http://www.w3.org/1999/xlink" width="200" height="200"><defs><style type="text/css"></style></defs><path d="M725.333333 768m-256 0a256 256 0 1 0 512 0 256 256 0 1 0-512 0Z" fill="#FE984F" opacity=".2" p-id="6520"></path><path d="M554.666667 725.333333a42.666667 42.666667 0 0 1-42.666667 42.666667H426.666667a42.666667 42.666667 0 0 1 0-85.333333h85.333333a42.666667 42.666667 0 0 1 42.666667 42.666666m128 128H256c-70.570667 0-128-57.429333-128-128s57.429333-128 128-128h426.666667c70.570667 0 128 57.429333 128 128s-57.429333 128-128 128m0-341.333333H256c-117.333333 0-213.333333 96-213.333333 213.333333s96 213.333333 213.333333 213.333334h426.666667c117.333333 0 213.333333-96 213.333333-213.333334s-96-213.333333-213.333333-213.333333M469.333333 85.333333c70.570667 0 128 57.429333 128 128s-57.429333 128-128 128-128-57.429333-128-128 57.429333-128 128-128m0 341.333334A213.333333 213.333333 0 1 0 469.290667-0.042667 213.333333 213.333333 0 0 0 469.333333 426.666667" fill="#FE984F" p-id="6521"></path></svg>